/* XPM */
static char *_e80473c7f2347199200e318bbbd851a[] = {
/* columns rows colors chars-per-pixel */
"32 32 130 2 ",
"   c #14D403",
".  c #1ED805",
"X  c #27CB03",
"o  c #3BCE05",
"O  c #22D102",
"+  c #2FD306",
"@  c #22DB00",
"#  c #2CDD09",
"$  c #32DB04",
"%  c #3CDE04",
"&  c #39D30D",
"*  c #35DB0C",
"=  c #3DDE0C",
"-  c #3DCC14",
";  c #35D015",
":  c #3BDC12",
">  c #3FDA19",
",  c #1DE300",
"<  c #1CEB00",
"1  c #25E300",
"2  c #2AE000",
"3  c #2CEE00",
"4  c #33E300",
"5  c #3CE404",
"6  c #35EC00",
"7  c #3CEC00",
"8  c #3FF500",
"9  c #48DF07",
"0  c #40D509",
"q  c #43D214",
"w  c #4CD416",
"e  c #4AD816",
"r  c #48D218",
"t  c #4CDB1C",
"y  c #51D119",
"u  c #52DE1E",
"i  c #60DE19",
"p  c #42E504",
"a  c #4CE505",
"s  c #43EC02",
"d  c #48EC03",
"f  c #4BE00A",
"g  c #47E808",
"h  c #43F400",
"j  c #4EF106",
"k  c #4CFB00",
"l  c #5BF305",
"z  c #53FE00",
"x  c #5BFF00",
"c  c #4CE01B",
"v  c #54E214",
"b  c #5AE413",
"n  c #50E218",
"m  c #63E90E",
"M  c #68F206",
"N  c #63FF01",
"B  c #6BFF02",
"V  c #66FF09",
"C  c #6BFF0A",
"Z  c #72FF03",
"A  c #7BFF01",
"S  c #73FF0B",
"D  c #7AFF0B",
"F  c #66EA16",
"G  c #67F411",
"H  c #4CCC23",
"J  c #52CD22",
"K  c #5ACD25",
"L  c #5ACD2A",
"P  c #4CD322",
"I  c #4ED028",
"U  c #4ED92B",
"Y  c #55D223",
"T  c #5ED920",
"R  c #53D729",
"E  c #59D42B",
"W  c #5ED634",
"Q  c #61C631",
"!  c #66CF3A",
"~  c #6BDD33",
"^  c #6BD738",
"/  c #68DD39",
"(  c #5BE230",
")  c #71E727",
"_  c #78E72C",
"`  c #7BC84F",
"'  c #6DD241",
"]  c #6FDE40",
"[  c #73D743",
"{  c #75DD51",
"}  c #7BE343",
"|  c #83FF03",
" . c #8CFF03",
".. c #83FE0C",
"X. c #8CFF0B",
"o. c #93FF1D",
"O. c #9AFF21",
"+. c #91FD3C",
"@. c #A0FF20",
"#. c #AAFF20",
"$. c #A3FF2A",
"%. c #B2FF23",
"&. c #C0FF27",
"*. c #CAFF3B",
"=. c #81D85D",
"-. c #8DE15F",
";. c #9AF256",
":. c #A7FA4F",
">. c #B3FF47",
",. c #B4FD4E",
"<. c #8DDE6D",
"1. c #A9EB62",
"2. c #ABE56F",
"3. c #C5FF40",
"4. c #CBFF45",
"5. c #CBFF5E",
"6. c #CDFE64",
"7. c #CAFE69",
"8. c #DCFD6B",
"9. c #C0EB70",
"0. c #CDF77C",
"q. c #E2FF69",
"w. c #E3FD75",
"e. c #EAFF75",
"r. c #B5E780",
"t. c #C9EC81",
"y. c #DBF083",
"u. c #EDFF8A",
"i. c #FFFF8B",
"p. c None",
/* pixels */
"p.p.p.p.p.p.p.p.p.p.p.p.p.p.p.p.p.p.p.p.p.p.p.p.p.p.p.p.p.p.p.p.",
"p.p.p.p.p.p.p.~ ;.:.6.w.y.t.2.<.{ =.p.p.p.p.p.p.p.p.p.p.p.p.p.p.",
"p.p.p.p.p.p.2.-.( u p d X.%.4.8.9.=.R _ p.p.p.p.p.p.p.p.p.p.p.p.",
"p.p.p.0.6.8.e.u.p.p.p.p.. < Z | %.e.p.p.% >.p.p.p.p.p.p.p.p.p.p.",
"p.` t G l B A A X.@.4.i.p.p.@ x N B %.p.p.  X.q.p.p.p.p.p.p.p.p.",
"p.p.p.p.U # k S x x x A 4.p.p.2 B S x  .7.p.  N *.p.p.p.p.p.p.p.",
"p.p.p.p.p.p.* N D S V V N  .p.p.3 D S N A 1.p., B #.p.p.p.p.p.p.",
"p.p.p.p.p.p.' 6 D C S S V Z M p.R h D C Z Z p.p.3 A X.p.p.p.p.p.",
"p.p.p.p.p.p.p.5 B S S C C D x p.p.5 S S V A m p.c z A D p.p.p.p.",
"p.p.p.p.p.p.p.q z D C S S D 8 p.p.t z S C S N p.p.7 S Z ) p.p.p.",
"p.p.p.p.p.p.p.p.@ N D D Z h - p.p.Y k D S S B T p.g B D B p.p.p.",
"p.p.p.p.p.p.p.p.^ * g j 5 P p.p.p.L z D C C Z v p.n x S Z i p.p.",
"p.p.p.p.p.p.p.p.p.p.p.p.p.p.p.p.p.r N S V S B b p.q V S Z l p.p.",
"p.p.p.p.p.p.p.p.p.p.p.p.p.p.p.p.p.s S C S S B v p.e x S S x Q p.",
"p.p.p.p.p.p.p.p.p.p.p.p.p.p.p.p.f B S V S C N w p.v B C S N K p.",
"p.p.p.p.p.p.p.p.p.p.p.p.p.p.p.l Z S C C V S k ! p.s Z V S N Y p.",
"p.p.p.p.p.p.p.p.p.p.p.p.p.p.9 Z S V C C S B 4 p.p.k S C S N y p.",
"p.p.p.p.p.p.p.p.p.p.p.p.p.p.7 Z C S S V D 8 E p.0 B S C S x J p.",
"p.p.p.p.p.p.p.p.p.p.p.p.p.p.& z D V S D k + p.p.z S V V S z L p.",
"p.p.p.p.p.p.p.p.p.p.p.p.p.p.p.@ z B N 7 : p.p.p S S B V S s p.p.",
"p.p.p.p.p.p.p.p.p.p.p.p.p.p.p.p.> p = t p.p.o B S S V S B 5 p.p.",
"p.p.p.p.p.p.p.p.p.p.p.p.p.p.p.p.p.p.p.p.p.y B B V V V S k H p.p.",
"p.p.p.p.p.p.p.p.p.p.p.p.p.p.p.p.p.p.p.p.F B S V V V V Z 4 p.p.p.",
"p.p.p.p.p.p.p.p.p.p.p.p.p.p.p.p.p.p.,.D Z V V V V V D 8 H p.p.p.",
"p.p.p.p.p.p.p.p.p.p.p.p.p.+.$.O.o.A N N V V V V V S z X p.p.p.p.",
"p.p.p.p.p.p.p.p.p.p.p.p.a B x z z x V V V V V V S x O p.p.p.p.p.",
"p.p.p.p.p.p.p.p.p.p.p.J k S V V C V S V S V S S k O p.p.p.p.p.p.",
"p.p.p.p.p.p.p.p.p.p.p.r z S V V V V V V V S B 6 ; p.p.p.p.p.p.p.",
"p.p.p.p.p.p.p.p.p.p.p.[ 1 Z S V S V S Z N h $ W p.p.p.p.p.p.p.p.",
"p.p.p.p.p.p.p.p.p.p.p.p.P 1 x N V N z 7 = P p.p.p.p.p.p.p.p.p.p.",
"p.p.p.p.p.p.p.p.p.p.p.p.p.] : g s p t / p.p.p.p.p.p.p.p.p.p.p.p.",
"p.p.p.p.p.p.p.p.p.p.p.p.p.p.p.} / p.p.p.p.p.p.p.p.p.p.p.p.p.p.p."
};
