/* XPM */
static char *_ffe973d7e5840e8a2d20ec13e1cded6[] = {
/* columns rows colors chars-per-pixel */
"64 64 254 2 ",
"   c #1CBC00",
".  c #26BC00",
"X  c #2ABF01",
"o  c #33BB02",
"O  c #31B609",
"+  c #36BB08",
"@  c #3CBF0D",
"#  c #42B40D",
"$  c #42BE14",
"%  c #48BF15",
"&  c #4DB71D",
"*  c #49BE1A",
"=  c #52BE1E",
"-  c #4BB222",
";  c #50B725",
":  c #51BA26",
">  c #54B32E",
",  c #59BB28",
"<  c #5CA836",
"1  c #5CB435",
"2  c #61BD2F",
"3  c #62BD34",
"4  c #61B13B",
"5  c #66BC3A",
"6  c #0DC200",
"7  c #09CC00",
"8  c #15C500",
"9  c #1CC400",
"0  c #16CB00",
"q  c #1CCB00",
"w  c #0DD700",
"e  c #16D200",
"r  c #1BD300",
"t  c #17DA00",
"y  c #1EDA00",
"u  c #25C100",
"i  c #2BC003",
"p  c #24CE00",
"a  c #2CCC00",
"s  c #33C304",
"d  c #34CC03",
"f  c #3DC800",
"g  c #36C508",
"h  c #3CC60B",
"j  c #3DCA0C",
"k  c #23D400",
"l  c #2DD300",
"z  c #23DB00",
"x  c #2CDE00",
"c  c #33D301",
"v  c #30DF00",
"b  c #3ADB00",
"n  c #37D00A",
"m  c #3DD10F",
"M  c #3CC411",
"N  c #23E300",
"B  c #2AE200",
"V  c #2DEC00",
"C  c #33E300",
"Z  c #39E300",
"A  c #33ED00",
"S  c #3AED00",
"D  c #2DF300",
"F  c #34F200",
"G  c #3AF400",
"H  c #34F900",
"J  c #3EF900",
"K  c #41CA00",
"L  c #4BC70A",
"P  c #42CA0F",
"I  c #49CB0D",
"U  c #51C80F",
"Y  c #43DB05",
"T  c #43C312",
"R  c #48C613",
"E  c #44C913",
"W  c #4ACB14",
"Q  c #45C318",
"!  c #4FC31E",
"~  c #53C31C",
"^  c #54CD1B",
"/  c #5CC91F",
"(  c #43D113",
")  c #4FD01A",
"_  c #50D712",
"`  c #52D21B",
"'  c #5BD219",
"]  c #63D41F",
"[  c #49E306",
"{  c #45EB00",
"}  c #55EF01",
"|  c #40F500",
" . c #4BF100",
".. c #43FC00",
"X. c #4CFE01",
"o. c #52F301",
"O. c #5AF404",
"+. c #54FF02",
"@. c #5BFF03",
"#. c #64FF06",
"$. c #6BFF06",
"%. c #67FF08",
"&. c #6BFF09",
"*. c #74FF06",
"=. c #7AFF07",
"-. c #72FF0B",
";. c #7BFF0C",
":. c #75FE13",
">. c #7DFF11",
",. c #55C424",
"<. c #54C922",
"1. c #5ACC26",
"2. c #5CC528",
"3. c #5CCB29",
"4. c #57D022",
"5. c #5AD324",
"6. c #5FDC23",
"7. c #5FD92A",
"8. c #5ED032",
"9. c #61C12D",
"0. c #65CC2C",
"q. c #69D725",
"w. c #63D62B",
"e. c #6BD52F",
"r. c #66D92E",
"t. c #69D92C",
"y. c #72DF2B",
"u. c #60C137",
"i. c #67CF31",
"p. c #6DCC33",
"a. c #73CC3C",
"s. c #65D533",
"d. c #6CD432",
"f. c #66D933",
"g. c #6DD833",
"h. c #71D436",
"j. c #71D933",
"k. c #77DB3B",
"l. c #6EE926",
"z. c #68E72F",
"x. c #78FF20",
"c. c #7BF329",
"v. c #70E531",
"b. c #78E236",
"n. c #7CE833",
"m. c #68BF41",
"M. c #72BF46",
"N. c #6CC043",
"B. c #75C04C",
"V. c #74D342",
"C. c #7ED344",
"Z. c #7EDC42",
"A. c #76D44A",
"S. c #84FF0C",
"D. c #8AFF0E",
"F. c #84FF13",
"G. c #8BFF13",
"H. c #94FF14",
"J. c #9AFF16",
"K. c #9CFF19",
"L. c #A3FF1B",
"P. c #AAFF1C",
"I. c #84F62B",
"U. c #87F92A",
"Y. c #91FE21",
"T. c #96FE2C",
"R. c #82EE37",
"E. c #81E13F",
"W. c #89F137",
"Q. c #96FC35",
"!. c #9AFB32",
"~. c #ACFF22",
"^. c #B2FF24",
"/. c #BAFF27",
"(. c #B3FF2A",
"). c #BBFF2A",
"_. c #ACFF3D",
"`. c #B1FF30",
"'. c #BFFF35",
"]. c #C5FF2F",
"[. c #C8FF2F",
"{. c #C4FF36",
"}. c #CDFF35",
"|. c #D1FF35",
" X c #D3FF3C",
".X c #82D646",
"XX c #84DD47",
"oX c #81D34E",
"OX c #81DC4C",
"+X c #88DE49",
"@X c #8ACA5B",
"#X c #82D856",
"$X c #89D95B",
"%X c #84E343",
"&X c #8DEE46",
"*X c #83E248",
"=X c #8AE14C",
"-X c #8DE84B",
";X c #86E351",
":X c #88E553",
">X c #8DEB5D",
",X c #95EC52",
"<X c #9AEE57",
"1X c #97F357",
"2X c #AFFD4A",
"3X c #B1FD42",
"4X c #BEFF4D",
"5X c #B9FE53",
"6X c #B0FF5B",
"7X c #8BD760",
"8X c #9AD974",
"9X c #BCFB64",
"0X c #A1F274",
"qX c #C3FF44",
"wX c #CDFF40",
"eX c #D4FF42",
"rX c #DAFF42",
"tX c #D7FF4D",
"yX c #DEFF49",
"uX c #CDFE58",
"iX c #D6FE51",
"pX c #DBFF5D",
"aX c #E2FF4D",
"sX c #E3FF53",
"dX c #E3FF59",
"fX c #EAFF5F",
"gX c #CFFF67",
"hX c #DFFF64",
"jX c #DAFF69",
"kX c #C3FD79",
"lX c #CCFE7B",
"zX c #D1FF70",
"xX c #D9FE72",
"cX c #D3FE7E",
"vX c #EAFF64",
"bX c #E5FF6C",
"nX c #EDFF6E",
"mX c #F3FF6A",
"MX c #ECFF7A",
"NX c #F0FF72",
"BX c #F0FF7E",
"VX c #C0FD81",
"CX c #C7FD8D",
"ZX c #CFFD8B",
"AX c #D1FD83",
"SX c #DDFF8D",
"DX c #DBFF92",
"FX c #D4FC9E",
"GX c #D9FD9E",
"HX c #E8FF86",
"JX c #E3FF93",
"KX c #F1FF94",
"LX c #D2FFA0",
"PX c None",
/* pixels */
"PXPXPXPXPXPXPXPXPXPXPXPXPXPXPXPXPXPXPXPXPXPXPXPXPXPXPXPXPXPXPXPXPXPXPXPXPXPXPXPXPXPXPXPXPXPXPXPXPXPXPXPXPXPXPXPXPXPXPXPXPXPXPXPX",
"PXPXPXPXPXPXPXPXPXPXPXPXPXPXPXPXPXPXPXPXPXPXPXPXPXPXPXPXPXPXPXPXPXPXPXPXPXPXPXPXPXPXPXPXPXPXPXPXPXPXPXPXPXPXPXPXPXPXPXPXPXPXPXPX",
"PXPXPXPXPXPXPXPXPXPXPXPXPXPXPXPXPXPXPXPXPXPXPXPXPXPXPXPX7X$XOX;X0XPXPXPXPXPXPXPXPXPXPXPXPXPXPXPXPXPXPXPXPXPXPXPXPXPXPXPXPXPXPXPX",
"PXPXPXPXPXPXPXPXPXPXPXPX>X:Xb.n.I.Q._.qXtXdXvXmXNXBXHXPXPXPXPXA.^ U ] 1XPXPXPXPXPXPXPXPXPXPXPXPXPXPXPXPXPXPXPXPXPXPXPXPXPXPXPXPX",
"PXPXPXPXPXPXPXPXPX8XoXa./ L L f d l k N A +.=.H.P.].|.aXfXNXKXPXPXPX3.o K W.zXPXPXPXPXPXPXPXPXPXPXPXPXPXPXPXPXPXPXPXPXPXPXPXPXPX",
"PXPXPXPXPXPXPXPXPXPXPXPXPXPXPXPXPXPXPXr.( p t D +.$.*.=.D.~.}.aXMXJXPXPX8.. c T.hXDXPXPXPXPXPXPXPXPXPXPXPXPXPXPXPXPXPXPXPXPXPXPX",
"PXPXPXPXPXPXPXPXPXPXPXDXDXDXGXPXPXPXPXPXPXPXt.d r F @.&.*.$.*.D.^. XvXDXPXPXW 6 { ).vXAXPXPXPXPXPXPXPXPXPXPXPXPXPXPXPXPXPXPXPXPX",
"PXPXPXPXPXPXcXjXpXtXeXwX XeXrXyXfXnXMXSXPXPXPXPXt.a y ..&.-.-.$.$.S.L. XbXPXPXPXu w -. XbXCXPXPXPXPXPXPXPXPXPXPXPXPXPXPXPXPXPXPX",
"PXPXPXPXz.x.>.S.S.S.;.=.=.*.=.S.G.L./. XsXbXJXPXPXPX^ q F %.-.-.&.$.*.;.P.rXlXPXPXI 7 ..L.aXxXPXPXPXPXPXPXPXPXPXPXPXPXPXPXPXPXPX",
"PXPX@X# . l k y N H @.$.$.-.$.#.$.%.$.*.D.~.|.sXJXPXPX%Xu B @.-.-.-.&.-.-.G./.gXPXPXq.8 H S.].pXVXPXPXPXPXPXPXPXPXPXPXPXPXPXPXPX",
"PXPXoX=XPXPXPX*Xw.n y ..$.-.-.-.&.&.&.&.$.$.*.J.[.iXLXPXPXs N @.-.-.-.$.-.-.;.L.3XPXPXy.8 J *.L.wXlXPXPXPXPXPXPXPXPXPXPXPXPXPXPX",
"PXPXPXPXPXPXPXPXPXPXr.9 H $.-.-.-.-.-.&.&.&.&.*.=.L.{.kXPXPXs B #.-.-.-.&.&.-.>.J.!.PXPXy.8 ..*.G.'.5XPXPXPXPXPXPXPXPXPXPXPXPXPX",
"PXPXPXPXPXPXPXPXPXPXPX=X9 J &.-.-.-.&.-.-.-.-.$.&.-.D.P.&XPXPX. V &.-.-.-.&.-.-.F.H.U.PXPX' e +.-.D.~.2XPXPXPXPXPXPXPXPXPXPXPXPX",
"PXPXPXPXPXPXPXPXPXPXPXPXd.r @.-.-.-.-.-.-.&.-.-.&.&.-.G.;.#XPX&X9 ..&.-.-.-.&.$.-.F.D.l.PXPXR N #.*.F.K.Q.PXPXPXPXPXPXPXPXPXPXPX",
"PXPXPXPXPXPXPXPXPXPXPXPXPXg F $.-.&.-.-.&.&.-.&.-.&.-.-.F.} PXPXw.r @.&.-.-.-.-.&.-.G.-.V.PXPXu H $.-.D.J.U.PXPXPXPXPXPXPXPXPXPX",
"PXPXPXPXPXPXPXPXPXPXPXPXPXi.z #.-.-.&.-.:.&.-.-.-.-.-.-.F.@.,.PXPXh F $.-.-.-.-.-.&.-.G.O.PXPXj.q @.&.-.F.H.c.PXPXPXPXPXPXPXPXPX",
"PXPXPXPXPXPXPXPXPXPXPXPXPXPXa X.&.-.-.-.&.-.&.-.&.&.&.-.:.@.P PXPXh.r @.&.-.-.&.-.-.&.S.-.` PXPXh V $.-.-.F.F.v.PXPXPXPXPXPXPXPX",
"PXPXPXPXPXPXPXPXPXPXPXPXPXPXh J &.-.&.-.-.&.&.-.&.-.:.-.-.@.P PXPXPXs J &.-.-.-.-.-.&.-.F. .PXPXk.p @.&.-.-.G.-.V.PXPXPXPXPXPXPX",
"PXPXPXPXPXPXPXPXPXPXPXPXPXPX,.B $.-.-.-.-.-.&.&.&.-.-.-.-...$ PXPXPX<.B %.-.:.-.-.&.-.-.>.#.<.PXPXg G $.-.-.:.G.} PXPXPXPXPXPXPX",
"PXPXPXPXPXPXPXPXPXPXPXPXPXPXC.q +.&.-.-.&.&.-.:.-.&.-.-.$.z , PXPXPXV.k @.-.&.&.-.-.&.-.-.-.Y PXPX0.z #.&.-.&.>.-.6.PXPXPXPXPXPX",
"PXPXPXPXPXPXPXPXPXPXPXPXPXPXPXg B $.-.-.-.&.&.-.-.-.-.&.G . PXPXPXPXPXl +.-.-.-.&.-.-.&.-.;.{ 4 PX=Xp @.&.-.-.-.F.O.N.PXPXPXPXPX",
"PXPXPXPXPXPXPXPXPXPXPXPXPXPXPX=X  D %.-.-.-.-.-.-.-.#.A   C.PXPXPXPXPXd X.-.-.&.-.&.&.&.-.;.X.; PXPXd ..&.-.&.-.;.-._ PXPXPXPXPX",
"PXPXPXPXPXPXPXPXPXPXPXPXPXPXPXPXE.u z ..@.%.#.#.@...z X Z.PXPXPXPXPXPXn X.-.-.-.-.-.&.:.-.-.+.R PXPXW S &.-.-.&.-.>.o.5 PXPXPXPX",
"PXPXPXPXPXPXPXPXPXPXPXPXPXPXPXPXPX1X<.a z B B z k a 3.PXPXPXPXPXPXPXPXl @.-.&.&.&.&.&.-.&.-.@.P PXPX<.V $.-.-.&.&.>.#.^ PXPXPXPX",
"PXPXPXPXPXPXPXPXPXPXPXPXPXPXPXPXPXPXPXPXZ.r.w.g.Z.PXPXPXPXPXPXPXPXPX5 x $.&.&.-.&.&.&.&.:.-.@.j PXPX3.C %.&.&.&.&.-.-.Y PXPXPXPX",
"PXPXPXPXPXPXPXPXPXPXPXPXPXPXPXPXPXPXPXPXPXPXPXPXPXPXPXPXPXPXPXPXPXPX$ | -.-.&.&.&.&.&.&.-.-.@.P PXPX2.C %.:.&.-.&.-.>.{ N.PXPXPX",
"PXPXPXPXPXPXPXPXPXPXPXPXPXPXPXPXPXPXPXPXPXPXPXPXPXPXPXPXPXPXPXPXPXPXl %.-.-.&.-.&.-.&.&.&.-.X.M PXPX,.C &.-.&.&.-.-.-.+.! PXPXPX",
"PXPXPXPXPXPXPXPXPXPXPXPXPXPXPXPXPXPXPXPXPXPXPXPXPXPXPXPXPXPXPXPXPXO ..-.$.&.&.&.&.&.-.&.-.-...Q PXPX! A &.&.&.&.&.&.-.#.P PXPXPX",
"PXPXPXPXPXPXPXPXPXPXPXPXPXPXPXPXPXPXPXPXPXPXPXPXPXPXPXPXPXPXPXPX1 S :.&.&.&.-.&.&.&.&.-.&.-.S * PXPXQ J &.-.&.&.$.-.-.$.Y PXPXPX",
"PXPXPXPXPXPXPXPXPXPXPXPXPXPXPXPXPXPXPXPXPXPXPXPXPXPXPXPXPXPXPXu.A -.:.&.&.&.&.&.&.&.&.&.-.$.C 3 PXPXh X.-.&.&.-.&.&.-.&.b PXPXPX",
"PXPXPXPXPXPXPXPXPXPXPXPXPXPXPXPXPXPXPXPXPXPXPXPXPXPXPXPXPXPXs.O.>.-.&.&.&.&.&.&.&.-.&.&.-.+.a PXPXPXl @.-.&.&.&.-.&.-.&.Z B.PXPX",
"PXPXPXPXPXPXPXPXPXPXPXPXPXPXPXPXPXPXPXPXPXPXPXPXPXPXPXPXPX` @.>.-.-.&.&.&.&.-.&.&.&.&.-.&.J @ PXPX3 C &.&.-.&.&.&.&.-.&.Z 5 PXPX",
"PXPXPXPXPXPXPXPXPXPXPXPXPXPXPXPXPXPXPXPXPXPXPXPXPXPXPXPX& | >.-.-.&.&.&.&.&.&.&.-.&.&.&.#.z 9.PXPX$ ..-.&.&.&.&.&.&.&.&.Z 3 PXPX",
"PXPXPXPXPXPXPXPXPXPXPXPXPXPXPXPXPXPXPXPXPXPXPXPXPXPXPXPXs +.-.$.%.&.&.&.&.&.&.&.&.&.&.-...X PXPXPXl @.&.-.&.&.&.&.&.-.&.Z 5 PXPX",
"PXPXPXPXPXPXPXPXPXPXPXPXPXPXPXPXPXPXPXPXPXPXPXPXPXPXPXPXp +.-.&.&.&.&.$.&.&.&.&.$.&.$.#.r 9.PXPX; A -.-.&.&.&.&.&.&.&.%.x M.PXPX",
"PXPXPXPXPXPXPXPXPXPXPXPXPXPXPXPXPXPXPXPXPXPXPXPXPXPXPXPXa X.&.&.$.&.&.&.&.&.&.&.%.-.$.V O PXPXPXa @.-.$.&.&.&.&.&.&.:.#.l PXPXPX",
"PXPXPXPXPXPXPXPXPXPXPXPXPXPXPXPXPXPXPXPXPXPXPXPXPXPXPXPXT F $.&.&.%.&.&.&.&.&.&.&.&...  XXPXPX- S :.&.$.&.$.&.&.&.&.-.@.d PXPXPX",
"PXPXPXPXPXPXPXPXPXPXPXPXPXPXPXPXPXPXPXPXPXPXPXPXPXPXPXPXp.q +.&.-.&.&.$.&.&.&.-.&...9 p.PXPXPXl %.&.&.%.&.&.$.&.&.$.&.X.M PXPXPX",
"PXPXPXPXPXPXPXPXPXPXPXPXPXPXPXPXPXPXPXPXPXPXPXPXPXPXPXPXPXs N #.&.-.-.&.$.-.&.%...8 0.PXPXPXo X.-.-.$.&.&.&.%.&.&.&.$.G Q PXPXPX",
"PXPXPXPXPXPXPXPXPXPXPXPXPXPXPXPXPXPXPXPXPXPXPXPXPXPXPXPXPX,Xu y X.%.$.-.&.%.+.B   h.PXPXPX> A :.-.$.&.&.&.&.&.&.&.$.$.C 3 PXPXPX",
"PXPXPXPXPXPXPXPXPXPXPXPXPXPXPXPXPXPXPXPXPXPXPXPXPXPXPXPXPXPX,XR q N S J S B p E =XPXPXPX< x -.-.&.$.&.&.&.&.&.&.&.&.+.a PXPXPXPX",
"PXPXPXPXPXPXPXPXPXPXPXPXPXPXPXPXPXPXPXPXPXPXPXPXPXPXPXPXPXPXPXPXE.4.( m ( 4.Z.PXPXPXPXPXb %.-.&.%.%.%.&.&.%.&.%.&.&.J h PXPXPXPX",
"PXPXPXPXPXPXPXPXPXPXPXPXPXPXPXPXPXPXPXPXPXPXPXPXPXPXPXPXPXPXPXPXPXPXPXPXPXPXPXPXPXPXPXY #.-.&.%.%.&.%.&.%.&.%.&.-.#.z 3 PXPXPXPX",
"PXPXPXPXPXPXPXPXPXPXPXPXPXPXPXPXPXPXPXPXPXPXPXPXPXPXPXPXPXPXPXPXPXPXPXPXPXPXPXPXPXPX[ %.:.-.%.%.&.%.&.%.&.%.&.%.&...X PXPXPXPXPX",
"PXPXPXPXPXPXPXPXPXPXPXPXPXPXPXPXPXPXPXPXPXPXPXPXPXPXPXPXPXPXPXPXPXPXPXPXPXPXPXPXA.O.&.>.$.%.%.&.%.&.%.&.%.&.&.&.%.N = PXPXPXPXPX",
"PXPXPXPXPXPXPXPXPXPXPXPXPXPXPXPXPXPXPXPXPXPXPXPXPXPXPXPXPXPXPXPXPXPXPXPXPXPXPXR.&.>.:.$.%.%.&.%.&.%.&.%.&.%.$.&.... PXPXPXPXPXPX",
"PXPXPXPXPXPXPXPXPXPXPXPXPXPXPXPXPXPXPXPXPXPXPXPXPXPXPXPXPXPXPXPXPXPXPXPXPX9XY.S.;.-.$.%.%.&.%.&.%.&.%.%.&.&.&.@.r 9.PXPXPXPXPXPX",
"PXPXPXPXPXPXPXPXPXPXPXPXPXPXPXPXPXPXPXPXPXPXPXPXPXPXPXPXPXPXFXZXAXcXxXuX`.D.;.-.$.%.%.%.$.%.%.%.%.%.%.%.%.$.$.V + PXPXPXPXPXPXPX",
"PXPXPXPXPXPXPXPXPXPXPXPXPXPXPXPXPXPXPXPXPXPXPXPXPXPXPX6X4XqX{.{.'.(.K.F.&.&.&.%.%.%.%.%.%.&.&.%.&.&.%.%.&.$...  .XPXPXPXPXPXPXPX",
"PXPXPXPXPXPXPXPXPXPXPXPXPXPXPXPXPXPXPXPXPXPXPXPXPXf.:.D.F.;.$.$.#.#.#.%.%.%.%.%.%.%.&.&.%.%.%.%.%.%.%.&.$.X.8 p.PXPXPXPXPXPXPXPX",
"PXPXPXPXPXPXPXPXPXPXPXPXPXPXPXPXPXPXPXPXPXPXPXPX$ +.;.-.#.#.%.%.#.#.%.%.%.%.%.%.&.%.%.%.%.&.%.&.%.%.&.&.+.e ~ PXPXPXPXPXPXPXPXPX",
"PXPXPXPXPXPXPXPXPXPXPXPXPXPXPXPXPXPXPXPXPXPXPX1 C -.&.%.%.%.%.%.%.$.%.%.%.%.&.%.%.%.%.&.%.%.%.%.%.&.&.+.r % PXPXPXPXPXPXPXPXPXPX",
"PXPXPXPXPXPXPXPXPXPXPXPXPXPXPXPXPXPXPXPXPXPXPXs +.&.%.%.&.%.%.&.%.%.&.%.&.%.%.%.&.&.%.%.%.%.&.&.&.%.X.r $ PXPXPXPXPXPXPXPXPXPXPX",
"PXPXPXPXPXPXPXPXPXPXPXPXPXPXPXPXPXPXPXPXPXPXPXl @.$.%.&.%.%.%.%.$.%.&.%.%.%.&.%.%.%.%.&.&.%.%.&.%...0 ,.PXPXPXPXPXPXPXPXPXPXPXPX",
"PXPXPXPXPXPXPXPXPXPXPXPXPXPXPXPXPXPXPXPXPXPXN.c +.&.&.%.&.%.&.&.&.%.%.%.%.&.%.%.&.%.%.&.$.$.$.@.V 9 i.PXPXPXPXPXPXPXPXPXPXPXPXPX",
"PXPXPXPXPXPXPXPXPXPXPXPXPXPXPXPXPXPXPXPXPXPX.Xa X.$.%.%.%.%.%.%.%.%.&.%.%.%.&.&.%.&.&.%.&.%.X.y g OXPXPXPXPXPXPXPXPXPXPXPXPXPXPX",
"PXPXPXPXPXPXPXPXPXPXPXPXPXPXPXPXPXPXPXPXPXPXPXs F %.%.%.%.%.%.%.%.%.%.%.&.%.%.&.$.&.&.$.@.V p ,.PXPXPXPXPXPXPXPXPXPXPXPXPXPXPXPX",
"PXPXPXPXPXPXPXPXPXPXPXPXPXPXPXPXPXPXPXPXPXPXPXd.0 X.$.&.%.%.%.%.%.%.%.#.%.%.%.&.$.%.+.F e M OXPXPXPXPXPXPXPXPXPXPXPXPXPXPXPXPXPX",
"PXPXPXPXPXPXPXPXPXPXPXPXPXPXPXPXPXPXPXPXPXPXPXPXR e +.&.$.$.$.%.&.%.&.&.&.$.%.#.X.A r M h.PXPXPXPXPXPXPXPXPXPXPXPXPXPXPXPXPXPXPX",
"PXPXPXPXPXPXPXPXPXPXPXPXPXPXPXPXPXPXPXPXPXPXPXPXPXR 0 H @.$.%.$.&.$.$.%.#.+...N p E j.PXPXPXPXPXPXPXPXPXPXPXPXPXPXPXPXPXPXPXPXPX",
"PXPXPXPXPXPXPXPXPXPXPXPXPXPXPXPXPXPXPXPXPXPXPXPXPXPXd.a z V ..X.X.X...F B k d 4.=XPXPXPXPXPXPXPXPXPXPXPXPXPXPXPXPXPXPXPXPXPXPXPX",
"PXPXPXPXPXPXPXPXPXPXPXPXPXPXPXPXPXPXPXPXPXPXPXPXPXPXPXPXj.( c c l c c ( 5.Z.PXPXPXPXPXPXPXPXPXPXPXPXPXPXPXPXPXPXPXPXPXPXPXPXPXPX",
"PXPXPXPXPXPXPXPXPXPXPXPXPXPXPXPXPXPXPXPXPXPXPXPXPXPXPXPXPXPXPX,X-X-XPXPXPXPXPXPXPXPXPXPXPXPXPXPXPXPXPXPXPXPXPXPXPXPXPXPXPXPXPXPX",
"PXPXPXPXPXPXPXPXPXPXPXPXPXPXPXPXPXPXPXPXPXPXPXPXPXPXPXPXPXPXPXPXPXPXPXPXPXPXPXPXPXPXPXPXPXPXPXPXPXPXPXPXPXPXPXPXPXPXPXPXPXPXPXPX"
};
