/* XPM */
static char *_5d1d97f96ec4050db136c01a43b818c[] = {
/* columns rows colors chars-per-pixel */
"16 16 98 2 ",
"   c #39E611",
".  c #45DF0F",
"X  c #51DE0F",
"o  c #49DD18",
"O  c #4CDD1D",
"+  c #4EDE1F",
"@  c #57DE14",
"#  c #4EED06",
"$  c #5AEE03",
"%  c #50EA0B",
"&  c #52E80E",
"*  c #49FC00",
"=  c #5FF100",
"-  c #52FB00",
";  c #55FA01",
":  c #52FC00",
">  c #51FF00",
",  c #55FD00",
"<  c #54FC01",
"1  c #55FF00",
"2  c #58FE00",
"3  c #59FF00",
"4  c #5AFF00",
"5  c #5BFF00",
"6  c #5DFF00",
"7  c #5EFF00",
"8  c #5BFA05",
"9  c #59F308",
"0  c #5FFA08",
"q  c #46E714",
"w  c #4EE315",
"e  c #4CE911",
"r  c #51E717",
"t  c #5FEA1F",
"y  c #62F206",
"u  c #62F900",
"i  c #63FC01",
"p  c #60FF00",
"a  c #62FF00",
"s  c #63FF00",
"d  c #64FF00",
"f  c #65FF00",
"g  c #66FF00",
"h  c #65FF05",
"j  c #6AFF00",
"k  c #6CFF00",
"l  c #6DFF00",
"z  c #6EFF00",
"x  c #6DFF03",
"c  c #6EFF03",
"v  c #6CFD07",
"b  c #6DFF06",
"n  c #6DFF07",
"m  c #68FD08",
"M  c #6CFE08",
"N  c #71FF01",
"B  c #76FF01",
"V  c #74FF04",
"C  c #77FF07",
"Z  c #78FF01",
"A  c #7CFF06",
"S  c #70FF08",
"D  c #74FF0A",
"F  c #74FF0B",
"G  c #78FF0A",
"H  c #6AE715",
"J  c #6BE916",
"K  c #71ED1D",
"L  c #6AF01D",
"P  c #7BFF13",
"I  c #54CD2F",
"U  c #5BD529",
"Y  c #59C932",
"T  c #63DC23",
"R  c #6BDF30",
"E  c #69DD35",
"W  c #66D73A",
"Q  c #53E226",
"!  c #64E429",
"~  c #71E622",
"^  c #74EA2A",
"/  c #6ED94E",
"(  c #84FF0A",
")  c #86FF19",
"_  c #91FF10",
"`  c #94FE19",
"'  c #9AFF1F",
"]  c #96F136",
"[  c #B1FF3C",
"{  c #89DD58",
"}  c #90EA4A",
"|  c #9DED4D",
" . c #99F15A",
".. c #B3FE48",
"X. c #B7F054",
"o. c #BFF466",
"O. c #CAF970",
"+. c None",
/* pixels */
"+.+.+.+.+.+.+.+.+.+.+.+.+.+.+.+.",
"+.+.O.o.| } L ` X.{  .+.+.+.+.+.",
"+.! 9 A ' ..+.  l [ / K +.+.+.+.",
"+.+.+.r i , _ +.q g ] +.i +.+.+.",
"+.+.+.W , ( 7 E +.5 l +.Q k +.+.",
"+.+.+.+.w i # +.+.8 B ~ +.7 H +.",
"+.+.+.+.+.+.+.+.Y g V J +.i v +.",
"+.+.+.+.+.+.+.+.u M k R +.g M @ ",
"+.+.+.+.+.+.+.$ Z G 5 +.T N m X ",
"+.+.+.+.+.+.+.. * > +.+.7 C 0 U ",
"+.+.+.+.+.+.+.+.+.+.+.y M l & +.",
"+.+.+.+.+.+.+.+.+.+.y g F > I +.",
"+.+.+.+.+.+.^ ) P g h D , O +.+.",
"+.+.+.+.+.+., i 5 M l > + +.+.+.",
"+.+.+.+.+.+.e 5 7 ; & +.+.+.+.+.",
"+.+.+.+.+.+.+.o t +.+.+.+.+.+.+."
};
